<?xml version="1.0" standalone="no"?>
<!DOCTYPE svg PUBLIC "-//W3C//DTD SVG 20010904//EN"
 "http://www.w3.org/TR/2001/REC-SVG-20010904/DTD/svg10.dtd">
<svg version="1.0" xmlns="http://www.w3.org/2000/svg"
 width="300.000000pt" height="300.000000pt" viewBox="0 0 300.000000 300.000000"
 preserveAspectRatio="xMidYMid meet">
<metadata>
Created by potrace 1.10, written by Peter Selinger 2001-2011
</metadata>
<g transform="translate(0.000000,300.000000) scale(0.050000,-0.050000)"
fill="#000000" stroke="none">
<path d="M4110 4173 c-277 -107 -414 -386 -321 -650 27 -76 14 -289 -20 -345
-49 -79 46 -93 203 -31 95 38 143 46 244 38 331 -26 564 188 564 518 0 332
-366 589 -670 470z m200 -47 c-294 -39 -466 -235 -446 -508 9 -128 -15 -119
-35 13 -40 263 188 512 461 505 65 -2 69 -4 20 -10z m88 -175 c126 -65 154
-264 53 -370 -28 -29 -51 -68 -51 -86 0 -40 -95 -35 -122 7 -14 23 -17 22 -18
-6 0 -49 -108 -34 -117 16 -4 21 -14 43 -21 48 -231 166 22 523 276 391z
m-503 -637 c-10 -68 -28 -133 -39 -144 -15 -14 -17 2 -8 50 8 39 19 113 26
166 7 53 18 87 26 75 7 -13 5 -78 -5 -147z"/>
<path d="M4127 3750 c-7 -19 1 -47 19 -64 42 -43 99 -18 90 39 -7 55 -90 74
-109 25z"/>
<path d="M4307 3748 c-7 -17 2 -45 19 -62 42 -43 94 -19 94 43 0 59 -92 75
-113 19z"/>
<path d="M2256 3650 c-347 -112 -545 -572 -446 -1040 17 -77 30 -141 30 -142
0 -2 -35 -7 -78 -13 -257 -35 -577 -311 -653 -565 -109 -363 113 -550 521
-439 33 9 41 0 44 -47 l4 -59 -304 -14 c-341 -16 -412 -39 -182 -58 198 -17
3684 -17 3823 0 151 18 129 47 -35 47 l-140 0 0 77 c0 89 -47 143 -125 143
-154 0 -153 75 5 277 66 84 223 285 350 446 126 162 230 302 230 312 0 26
-421 45 -1030 45 l-520 1 -102 -115 -103 -115 21 129 c48 295 -55 613 -259
799 -255 233 -809 408 -1051 331z m439 -100 c449 -120 717 -338 795 -647 41
-161 23 -227 -29 -110 -61 137 -160 195 -401 237 -82 14 -126 27 -98 28 29 1
100 -7 159 -18 73 -14 110 -14 119 0 7 12 46 17 87 12 102 -13 94 16 -42 147
-159 154 -340 249 -395 208 -78 -58 -285 15 -260 93 12 38 -73 65 -270 86 -48
5 -35 9 40 11 64 2 188 -18 295 -47z m-539 -494 c18 -18 34 -18 69 0 45 23
307 28 345 6 11 -7 43 -12 70 -13 28 -1 100 -4 160 -7 l110 -5 -110 -25 c-296
-65 -460 -261 -460 -549 l0 -91 -40 43 c-22 24 -40 71 -40 104 0 63 -39 88
-41 26 -2 -35 -66 93 -190 380 l-67 155 85 0 c47 0 96 -11 109 -24z m1002
-117 c159 -35 280 -170 282 -314 l0 -45 -511 0 -512 0 14 45 c80 258 381 388
727 314z m601 -454 c-24 -30 -169 -215 -323 -410 -153 -195 -287 -355 -298
-355 -16 0 162 234 529 695 55 69 108 125 118 125 10 0 -2 -25 -26 -55z m1427
30 c-91 -120 -546 -697 -584 -740 l-49 -55 -656 0 -656 0 324 410 324 410 658
0 c523 0 654 -5 639 -25z m-2686 -35 c0 -11 18 -38 40 -60 90 -90 460 -42 460
60 0 11 23 20 50 20 30 0 50 -11 50 -29 0 -55 84 -91 214 -91 148 0 153 -11
78 -172 -119 -256 -786 -255 -919 1 -62 119 -71 291 -15 291 23 0 42 -9 42
-20z m-982 -229 c-171 -133 -335 -417 -339 -587 -1 -49 -3 -50 -18 -12 -61
150 107 452 349 624 98 69 104 50 8 -25z m1147 -258 c116 -56 204 -172 163
-213 -14 -14 -42 6 -89 63 -115 141 -141 163 -163 141 -13 -13 -6 -40 24 -79
51 -70 49 -171 -5 -181 -27 -5 -35 7 -35 55 0 41 -10 61 -30 61 -20 0 -30 -20
-30 -60 0 -47 -9 -60 -40 -60 -26 0 -40 13 -40 39 0 50 -37 73 -52 32 -24 -61
-207 -15 -236 60 -73 193 252 280 533 142z m494 -101 c-16 -15 -69 -32 -119
-38 -74 -8 -81 -6 -40 10 28 11 77 32 110 46 69 29 91 21 49 -18z m1377 -289
l7 -43 -712 0 c-696 0 -711 1 -711 40 0 34 1091 72 1390 48 11 0 23 -21 26
-45z m-1496 -4 c0 -58 -345 -52 -356 6 -6 31 12 35 175 35 169 0 181 -3 181
-41z m45 -134 c-245 -3 -645 -3 -890 0 -245 3 -44 6 445 6 490 0 690 -3 445
-6z m1692 -45 c7 -48 6 -49 -32 -15 -34 32 -93 35 -592 35 -361 0 -553 7 -553
20 0 14 199 19 585 15 l585 -5 7 -50z"/>
<path d="M4260 2194 c0 -56 -35 -94 -86 -94 -53 0 -31 -46 32 -69 101 -35 179
101 103 178 -42 41 -49 39 -49 -15z"/>
<path d="M2897 2158 c-41 -36 -42 -40 -7 -28 22 8 74 19 115 25 94 13 99 45 7
45 -40 0 -87 -17 -115 -42z"/>
</g>
</svg>
