<?xml version="1.0" encoding="UTF-8"?>
<svg version="1.1" viewBox="0 0 1500 439" xmlns="http://www.w3.org/2000/svg">
<g transform="translate(-.90909 -1.8308)">
<svg width="1500" height="439" data-background-color="#111111" viewBox="0 0 396 116" xmlns="http://www.w3.org/2000/svg" xmlns:xlink="http://www.w3.org/1999/xlink">
<g transform="translate(.24 .48376)">
<g>
<svg width="395.52" height="115.03" data-palette-color="#e6e1e1" viewBox="3 -30 103.15 30">
<path class="wordmark-text-0" d="m10.7 0h-7.7q0.35 0 0.7-0.7t0.35-2.3v-24q0-1.6-0.35-2.28-0.35-0.67-0.7-0.72h7.7q-0.35 0-0.7 0.7t-0.35 2.35v8.15q0 1.1 0.3 1.3t1.75 0.2h0.5q2.3 0 4.7-1.23 2.4-1.22 4.3-3.42t2.65-5q0.45-1.6 0.18-2.3-0.28-0.7-0.68-0.75h10.65q-0.5 0-1.5 0.7t-2.05 2.35q-1.3 2.05-2.35 3.5t-2.02 2.5q-0.98 1.05-2.13 2.05-1.55 1.3-2.75 1.9t-1.8 0.85v0.15q1.2 0.25 2.85 0.92 1.65 0.68 3.8 2.18 2.6 1.85 4.53 4.22 1.92 2.38 3.62 5.18 1.15 1.85 2.1 2.67 0.95 0.83 1.45 0.83h-10.5q0.55 0 0.9-0.65t-0.2-2.1q-0.65-1.85-2-3.73-1.35-1.87-3.35-3.42t-4.6-2.48q-2.6-0.92-5.75-0.92h-0.55q-1.55 0-1.8 0.22-0.25 0.23-0.25 1.43v8.65q0 1.6 0.35 2.3t0.7 0.7zm46.2 0h-7.85q0.4 0 0.82-0.68 0.43-0.67 0.43-2.32v-10.85q-1.4-1.65-3.05-3.58-1.65-1.92-3.25-3.8-1.6-1.87-2.9-3.37t-2-2.3q-1.45-1.6-2.38-2.33-0.92-0.72-1.22-0.77h9.75q-0.35 0.05-0.25 0.75t1.25 2.35q0.55 0.75 1.37 1.87 0.83 1.13 1.78 2.45 0.95 1.33 1.92 2.63 0.98 1.3 1.78 2.35h0.05q0.75-1 1.72-2.23 0.98-1.22 1.95-2.52 0.98-1.3 1.88-2.53 0.9-1.22 1.5-2.12 1.15-1.7 1.25-2.35t-0.25-0.65h9.4q-0.25 0-1.1 0.67-0.85 0.68-2.25 2.28-1.4 1.65-2.83 3.3-1.42 1.65-2.85 3.3-1.42 1.65-2.82 3.3t-2.85 3.3v10.85q0 1.65 0.32 2.32 0.33 0.68 0.68 0.68zm32.65 0h-15.71q0.35 0 0.71-0.7 0.34-0.7 0.34-2.3v-24q0-1.6-0.34-2.28-0.36-0.67-0.71-0.72h15.71q4.45 0 7.42 0.85t4.8 2.35q1.82 1.5 2.78 3.42 0.95 1.93 1.27 4.08 0.33 2.15 0.33 4.35 0 2-0.33 4.12-0.32 2.13-1.3 4.05-0.97 1.93-2.8 3.45-1.83 1.53-4.8 2.43-2.98 0.9-7.37 0.9zm-7.05-4.05h6.14q4.3 0 6.91-1.1 2.59-1.1 3.79-3.43 1.21-2.32 1.21-6.02v-0.9q0-3.9-1.11-6.18-1.1-2.27-3.69-3.25-2.61-0.97-7.11-0.97h-6.14q-1.45 0-1.73 0.17-0.27 0.18-0.27 1.23v18.95q0 1.1 0.27 1.3 0.28 0.2 1.73 0.2z" fill="#e6e1e1" data-fill-palette-color="primary"/>
</svg>
</g>
<rect width="395.52" height="115.03" fill="none" visibility="hidden"/>
</g>
</svg>
</g>
</svg>